<?xml version="1.0" standalone="no"?>
<!DOCTYPE svg PUBLIC "-//W3C//DTD SVG 20010904//EN"
 "http://www.w3.org/TR/2001/REC-SVG-20010904/DTD/svg10.dtd">
<svg version="1.0" xmlns="http://www.w3.org/2000/svg"
 width="565.000000pt" height="565.000000pt" viewBox="0 0 565.000000 565.000000"
 preserveAspectRatio="xMidYMid meet">
<metadata>
Created by potrace 1.14, written by Peter Selinger 2001-2017
</metadata>
<g transform="translate(0.000000,565.000000) scale(0.100000,-0.100000)"
fill="#000000" stroke="none">
<path d="M0 3660 c0 -1983 0 -1990 20 -1991 11 -1 26 -2 33 -3 6 -1 16 -7 20
-13 4 -7 15 -13 23 -13 11 0 12 -4 5 -13 -46 -55 -61 -76 -61 -85 0 -5 -9 -12
-20 -15 -20 -5 -20 -14 -20 -651 0 -550 2 -645 14 -640 12 5 12 0 1 -33 -8
-21 -14 -75 -15 -120 l0 -83 845 0 c465 0 845 3 846 8 0 4 3 29 5 57 3 27 7
51 10 54 4 4 8 -53 6 -96 l-1 -23 1184 0 c937 0 1184 3 1188 13 4 9 6 9 6 0 1
-10 93 -13 426 -13 431 0 432 0 426 34 -1 5 9 2 22 -7 16 -10 28 -12 34 -6 6
6 14 4 23 -6 11 -13 50 -15 271 -15 l259 0 1 28 c2 23 2 24 6 5 6 -33 20 -28
20 7 0 16 -4 27 -9 24 -4 -3 -8 2 -8 11 0 9 4 13 10 10 6 -4 9 3 7 16 -1 12 4
24 11 26 7 3 12 -4 12 -16 0 -11 5 -23 10 -26 8 -5 7 -12 -2 -22 -7 -9 -13
-27 -13 -40 -1 -19 4 -23 27 -23 l28 0 0 428 c0 277 -4 422 -10 412 -5 -8 -7
-23 -4 -32 3 -10 1 -18 -5 -18 -6 0 -11 9 -11 20 0 11 -3 21 -7 21 -36 6 -66
3 -70 -8 -3 -7 -9 -10 -14 -7 -5 3 -7 9 -4 14 3 4 -1 13 -9 19 -17 15 -33 -3
-39 -44 -4 -32 -20 -78 -37 -107 -6 -10 -10 -24 -10 -33 0 -12 -3 -12 -20 2
-11 10 -20 23 -20 30 0 7 -5 13 -11 13 -8 0 -8 4 1 14 8 10 8 21 2 32 -8 14
-11 14 -18 3 -8 -13 -12 -48 -15 -152 -1 -21 -5 -40 -9 -42 -5 -3 -6 5 -2 17
5 20 3 21 -10 11 -11 -10 -17 -10 -26 -1 -18 18 -14 -3 5 -26 9 -12 -29 27
-86 86 -56 59 -116 119 -134 133 -18 15 -23 22 -12 17 18 -9 20 -7 20 18 0 16
-4 32 -8 36 -4 5 -5 1 -2 -8 4 -9 2 -19 -4 -23 -6 -3 -11 1 -11 10 0 9 -5 13
-10 10 -6 -4 -7 -11 -4 -17 11 -17 -31 9 -47 29 -13 17 -13 17 7 0 21 -17 22
-17 28 0 4 9 4 14 0 10 -4 -4 -13 -2 -20 4 -8 6 -21 9 -29 5 -8 -3 -15 -1 -15
4 0 6 6 10 13 11 6 0 1 5 -13 10 -18 7 -21 12 -11 18 10 6 7 13 -11 27 -12 11
-23 24 -23 29 -1 6 -7 30 -14 55 -7 25 -14 63 -15 85 -1 22 -5 46 -10 53 -4 7
-5 16 -2 19 3 4 -1 17 -9 29 -11 17 -12 24 -2 27 9 4 9 7 -1 18 -6 7 -12 23
-12 35 0 13 -4 25 -10 29 -5 3 -7 12 -4 19 3 7 -2 18 -10 25 -8 7 -12 19 -9
27 3 8 -4 18 -18 23 -13 5 -18 10 -11 10 21 1 3 21 -19 21 -10 0 -19 7 -19 15
0 23 34 18 155 -20 61 -19 117 -35 127 -35 36 0 248 -79 292 -108 26 -18 53
-32 61 -32 7 0 15 -4 17 -8 4 -9 173 -92 188 -92 5 0 10 -9 10 -21 0 -12 5
-19 13 -17 7 3 13 26 15 56 3 49 1 54 -34 84 -61 53 -85 81 -96 110 -5 16 -15
28 -22 28 -7 0 -23 11 -36 25 -13 14 -28 25 -34 25 -43 2 -90 107 -75 165 5
17 27 50 50 73 45 48 68 50 119 13 14 -10 42 -23 62 -30 21 -7 40 -17 43 -22
19 -30 25 7 25 159 l0 169 -37 -7 c-21 -3 -50 -2 -65 3 -21 7 -31 5 -44 -7 -8
-9 -25 -16 -36 -16 -19 0 -19 -1 -4 -24 11 -18 13 -31 7 -48 -6 -13 -10 -17
-11 -8 0 8 -14 28 -31 45 -26 26 -33 28 -58 19 l-28 -11 -13 76 c-14 78 -15
131 -2 141 4 3 12 14 18 25 19 34 70 57 124 57 28 -1 56 -4 63 -9 21 -13 107
-40 112 -35 3 3 5 516 5 1139 0 1126 0 1134 -20 1161 -17 23 -20 36 -14 70 3
23 13 47 20 53 12 9 14 102 14 526 l0 514 -282 -5 c-156 -3 -296 -5 -313 -5
-16 0 -150 2 -297 5 l-267 5 13 -25 c8 -15 10 -41 7 -68 -7 -53 -31 -60 -97
-29 -48 23 -68 56 -58 97 l6 24 -811 0 -811 0 0 -27 c0 -34 -38 -90 -70 -103
-48 -19 -131 -30 -170 -21 -21 5 -44 5 -51 0 -23 -14 -132 -10 -162 6 -23 11
-32 12 -48 2 -62 -39 -52 -171 11 -137 11 6 25 8 31 5 12 -8 59 2 58 13 -4 22
3 30 23 24 15 -3 19 -2 14 7 -4 6 -4 11 1 10 30 -5 93 3 88 11 -4 6 11 11 37
11 l43 2 -47 6 c-26 4 -50 10 -54 14 -13 12 109 7 162 -7 71 -19 160 -19 188
-1 12 8 33 15 47 15 13 0 44 3 69 6 38 4 55 0 110 -30 36 -20 59 -36 52 -36
-7 0 -11 -4 -8 -9 4 -5 0 -12 -6 -14 -10 -4 -10 -6 0 -6 7 -1 11 -5 8 -10 -3
-5 25 -22 62 -37 37 -16 87 -40 112 -53 97 -52 115 -61 127 -61 7 0 13 -4 13
-10 0 -14 32 -45 48 -46 29 -2 35 -4 29 -11 -4 -3 -1 -13 5 -22 7 -9 3 -8 -10
3 -13 11 -30 21 -38 22 -22 3 -44 24 -44 41 0 8 -4 11 -10 8 -5 -3 -10 -1 -10
5 0 6 -4 9 -9 6 -5 -3 -22 4 -37 16 l-29 22 30 -34 c17 -19 38 -40 48 -48 23
-18 22 -31 -3 -25 -11 3 -17 9 -14 14 3 5 -3 12 -13 16 -10 3 -28 15 -40 26
-12 10 -26 16 -32 12 -6 -3 -11 -1 -11 5 0 6 -13 16 -30 21 -28 10 -41 29 -20
29 6 0 10 -5 10 -11 0 -5 4 -8 9 -5 5 3 14 -1 21 -9 7 -8 17 -15 22 -15 17 0
-14 31 -40 41 -17 6 -29 6 -38 -2 -8 -7 -17 -9 -21 -5 -3 3 -1 6 7 6 10 0 10
3 0 15 -6 8 -38 17 -71 21 -33 4 -61 9 -63 13 -5 8 54 5 77 -4 9 -4 17 -5 17
-2 0 8 -85 47 -103 47 -9 0 -17 3 -17 8 0 12 -96 43 -114 36 -13 -5 -12 -9 7
-24 l22 -18 -27 1 c-14 1 -24 6 -20 11 3 5 -2 7 -11 3 -9 -3 -19 -2 -22 3 -8
13 -45 13 -45 0 0 -5 -8 -7 -17 -4 -10 4 -6 -2 8 -12 14 -11 24 -25 21 -32 -3
-10 -8 -8 -19 5 -8 10 -12 12 -8 6 9 -18 2 -16 -53 11 -26 13 -58 29 -72 35
-28 13 -121 11 -113 -2 3 -5 17 -6 32 -3 22 5 23 5 7 -5 -13 -8 -25 -8 -43 0
-28 13 -36 14 -30 4 3 -5 -11 -8 -31 -7 -21 0 -45 -4 -55 -8 -10 -5 -23 -7
-30 -5 -7 3 4 12 23 21 34 16 34 17 5 11 -16 -4 -31 -11 -33 -16 -5 -12 -103
-61 -110 -54 -3 3 0 5 6 5 7 0 12 5 12 10 0 20 -31 10 -55 -17 -21 -24 -26
-26 -35 -13 -8 13 -11 11 -16 -7 -9 -31 -79 -64 -124 -57 -50 8 -94 36 -98 63
-2 12 4 40 12 62 19 48 19 49 2 49 -34 0 -35 82 -1 132 14 20 25 39 25 43 0 3
-15 14 -32 25 -32 20 -54 20 -1000 20 l-968 0 0 -1990z m4749 1754 c-12 -15
-49 -6 -49 10 0 21 10 24 35 12 16 -7 21 -14 14 -22z m116 -4 c-3 -5 1 -10 9
-10 9 0 16 -7 16 -16 0 -8 4 -13 8 -10 5 3 9 -1 9 -9 0 -8 -6 -15 -13 -15 -6
0 -14 -7 -18 -15 -3 -8 -12 -12 -21 -9 -9 4 -14 9 -11 11 3 3 -4 15 -15 26
-24 26 -20 39 12 48 13 4 25 7 27 8 2 1 0 -3 -3 -9z m-1945 -10 c8 -5 11 -10
5 -10 -5 0 -17 5 -25 10 -8 5 -10 10 -5 10 6 0 17 -5 25 -10z m-283 -25 c12
-9 26 -15 30 -14 15 2 53 -13 53 -22 0 -5 3 -8 8 -8 20 3 34 -4 66 -36 20 -19
33 -28 29 -18 -4 11 -3 14 5 9 7 -4 12 -18 12 -32 0 -13 5 -24 11 -24 6 0 9
-6 6 -14 -3 -7 0 -20 6 -27 7 -8 -7 4 -30 25 -23 22 -39 44 -36 50 3 6 2 8 -2
3 -5 -4 -18 1 -29 10 -20 17 -20 17 -7 1 7 -10 10 -18 5 -18 -5 0 -2 -5 6 -10
9 -6 10 -10 3 -10 -6 0 -21 16 -33 35 -24 38 -32 45 -24 18 5 -17 5 -17 -6 -1
-6 10 -33 27 -60 39 -27 12 -47 26 -44 31 4 6 -3 8 -17 4 -23 -7 -23 -7 -5 8
24 20 26 20 53 1z m213 -11 c22 -15 37 -31 34 -36 -3 -5 1 -8 9 -6 9 2 16 -1
16 -5 0 -5 17 -21 38 -36 21 -15 45 -36 53 -46 8 -10 -17 6 -55 35 -39 29 -69
57 -68 61 3 8 -58 39 -77 39 -6 0 -8 5 -5 10 9 14 10 13 55 -16z m198 -13 c9
-5 3 -8 -17 -7 -17 1 -31 4 -31 9 0 10 32 9 48 -2z m-66 -29 c11 -13 8 -12
-19 2 -18 9 -33 18 -33 20 0 9 41 -8 52 -22z m2098 18 c0 -5 -2 -10 -4 -10 -3
0 -8 5 -11 10 -3 6 -1 10 4 10 6 0 11 -4 11 -10z m53 -29 c-7 -27 -29 -33 -30
-10 -1 11 2 17 7 14 5 -3 11 -1 15 5 10 16 14 12 8 -9z m-189 -13 c1 -7 5 -19
9 -25 13 -21 -2 -34 -24 -23 -15 9 -17 15 -9 30 6 11 8 20 5 20 -4 0 -3 5 0
11 8 12 16 7 19 -13z m-2700 -2 c-10 -8 -21 -12 -24 -10 -5 6 21 24 34 24 6 0
1 -6 -10 -14z m2744 -15 c3 -8 -1 -12 -9 -9 -7 2 -15 10 -17 17 -3 8 1 12 9 9
7 -2 15 -10 17 -17z m-2688 -1 c-8 -5 -19 -10 -25 -10 -5 0 -3 5 5 10 8 5 20
10 25 10 6 0 3 -5 -5 -10z m2810 -32 c0 -5 -9 -12 -20 -15 -11 -3 -18 -8 -16
-12 3 -4 -4 -7 -14 -7 -10 0 -17 3 -14 7 2 4 -1 9 -8 11 -9 3 -8 12 5 31 17
26 18 26 42 11 14 -9 25 -21 25 -26z m-2855 21 c3 -4 -5 -11 -17 -15 -13 -4
-26 -12 -30 -18 -5 -8 -8 -7 -8 2 0 10 -4 10 -16 -2 -17 -17 -49 -22 -39 -6 3
6 13 10 20 10 8 0 19 8 24 19 10 19 57 26 66 10z m479 -34 c9 -14 13 -25 8
-25 -5 0 -14 11 -20 25 -6 14 -10 25 -8 25 2 0 11 -11 20 -25z m2286 -10 c0
-15 -37 -16 -43 -1 -3 7 4 12 19 12 13 0 24 -5 24 -11z m-2603 -1 c-3 -3 -12
-4 -19 -1 -8 3 -5 6 6 6 11 1 17 -2 13 -5z m493 -19 c13 -14 21 -25 18 -25 -2
0 -15 11 -28 25 -13 14 -21 25 -18 25 2 0 15 -11 28 -25z m-563 -1 c-3 -3 -12
-4 -19 -1 -8 3 -5 6 6 6 11 1 17 -2 13 -5z m1103 -4 c8 -5 11 -10 5 -10 -5 0
-17 5 -25 10 -8 5 -10 10 -5 10 6 0 17 -5 25 -10z m-1117 -14 c9 0 17 -3 17
-7 0 -4 14 -9 32 -13 17 -3 29 -8 27 -11 -3 -2 -22 0 -43 6 -44 12 -55 7 -32
-16 29 -29 17 -27 -21 3 -21 16 -47 34 -58 41 -17 9 -13 10 20 4 22 -4 48 -7
58 -7z m104 -2 c3 -8 12 -13 19 -10 7 3 16 1 19 -3 5 -10 -46 -7 -88 4 -21 6
-25 10 -15 16 21 14 58 10 65 -7z m820 9 c-4 -3 1 -12 11 -20 15 -13 15 -13
-6 -3 -19 9 -23 30 -5 30 4 0 3 -3 0 -7z m-1181 -12 c-3 -5 -24 -18 -45 -29
-50 -26 -81 -53 -75 -64 3 -4 -2 -8 -12 -8 -18 0 -14 6 31 55 32 36 118 74
101 46z m122 -16 c-3 -3 -9 2 -12 12 -6 14 -5 15 5 6 7 -7 10 -15 7 -18z
m1126 -24 c-2 -3 -12 3 -22 13 -16 17 -16 18 5 5 12 -7 20 -15 17 -18z m-939
-9 c-3 -3 -11 0 -18 7 -9 10 -8 11 6 5 10 -3 15 -9 12 -12z m-146 -26 c-3 -3
-11 5 -18 17 -13 21 -12 21 5 5 10 -10 16 -20 13 -22z m126 -8 c5 4 5 1 1 -5
-4 -8 -2 -13 5 -13 7 0 10 -3 6 -6 -3 -3 -16 1 -29 10 -25 18 -42 21 -33 6 4
-6 -1 -7 -11 -3 -12 4 -14 8 -5 11 8 3 7 8 -6 18 -10 8 1 6 23 -5 23 -11 45
-17 49 -13z m75 -8 c12 -7 10 -9 -8 -7 -12 0 -22 5 -22 9 0 11 12 10 30 -2z
m-71 -44 c17 -19 20 -26 9 -32 -7 -4 -10 -3 -5 1 4 5 -3 19 -15 32 -12 13 -19
23 -16 23 2 0 15 -11 27 -24z m96 14 c3 -6 -1 -7 -9 -4 -18 7 -21 14 -7 14 6
0 13 -4 16 -10z m-187 -25 c-3 -3 -9 2 -12 12 -6 14 -5 15 5 6 7 -7 10 -15 7
-18z m-327 -10 c5 3 1 -8 -9 -24 -9 -17 -21 -31 -27 -31 -5 -1 -25 -14 -44
-30 -19 -16 -36 -28 -38 -26 -6 6 88 96 101 96 6 0 5 4 -3 9 -10 7 -24 3 -43
-11 -16 -11 -42 -21 -59 -22 -29 -2 -29 -2 -11 17 10 10 36 24 57 31 33 12 41
11 53 0 7 -8 18 -12 23 -9z m398 -14 c-1 -13 -2 -13 -6 2 -2 9 -9 17 -14 17
-5 0 -9 5 -9 11 0 8 5 8 15 -1 8 -7 14 -20 14 -29z m915 -191 c36 -12 66 -25
66 -30 0 -6 6 -10 13 -10 24 0 137 -88 137 -108 0 -5 7 -15 15 -22 8 -7 15
-19 15 -26 0 -7 14 -43 30 -79 30 -65 56 -215 38 -215 -4 0 -8 -16 -8 -35 0
-19 -5 -35 -11 -35 -15 0 -4 -207 12 -226 7 -8 12 -31 11 -51 -1 -24 5 -41 17
-52 26 -23 37 -68 62 -261 11 -91 25 -173 30 -182 5 -9 9 -26 9 -37 0 -10 4
-21 9 -23 4 -1 25 -29 45 -60 l36 -57 37 16 c25 10 42 12 53 6 10 -7 23 -5 41
6 14 9 26 18 27 21 0 3 4 18 7 33 11 41 -12 75 -72 109 -59 33 -64 44 -30 57
13 5 38 25 55 46 18 20 37 33 43 29 6 -3 19 -26 29 -50 18 -40 40 -59 40 -33
0 5 4 8 8 5 10 -6 14 73 4 88 -3 6 -7 17 -8 24 -5 29 -14 43 -26 36 -8 -5 -9
-2 -5 9 8 21 8 21 -35 3 -19 -8 -65 -44 -104 -80 -38 -37 -77 -69 -86 -72 -10
-3 -18 -10 -18 -15 0 -5 -9 -1 -20 8 -26 22 -19 73 19 152 7 14 21 24 51 35 8
3 37 22 64 41 57 41 88 44 137 11 38 -26 45 -41 74 -142 19 -68 14 -130 -24
-294 -22 -96 -76 -233 -66 -168 l6 38 -50 -25 c-53 -27 -67 -47 -51 -73 5 -10
10 -13 10 -8 0 5 7 3 15 -4 8 -6 19 -9 25 -5 7 4 7 -2 1 -18 -7 -17 -6 -29 2
-37 9 -10 9 -11 -3 -6 -8 4 -5 -1 8 -12 12 -11 22 -25 22 -31 0 -6 4 -11 8
-11 4 0 9 -15 10 -32 2 -18 7 -35 13 -36 6 -3 5 -10 -3 -20 -11 -14 -10 -15 6
-9 16 6 17 5 6 -8 -12 -14 -7 -19 13 -16 5 1 6 -3 3 -8 -4 -5 -1 -13 5 -17 6
-3 15 -1 19 6 9 15 56 9 53 -7 -2 -7 4 -10 12 -7 20 8 51 -24 37 -38 -6 -6 -7
-21 -2 -39 5 -16 6 -29 3 -29 -3 0 0 -6 6 -14 9 -11 9 -17 -1 -27 -7 -8 -14
-32 -15 -53 -3 -50 -7 -52 -38 -32 -14 9 -30 14 -35 11 -9 -6 -15 31 -10 64 3
22 -42 62 -66 59 -12 -1 -29 4 -38 11 -15 13 -20 11 -44 -17 -15 -18 -33 -32
-40 -32 -7 0 -10 -4 -7 -10 3 -5 0 -10 -7 -10 -9 0 -9 -3 2 -10 11 -7 11 -10
2 -10 -7 0 -10 -4 -7 -10 3 -5 1 -10 -5 -10 -6 0 -5 -8 4 -22 7 -13 12 -31 11
-40 -2 -10 1 -21 7 -24 6 -4 5 -9 -3 -15 -11 -6 -11 -23 -1 -92 13 -88 8 -142
-14 -167 -7 -8 -19 -27 -26 -41 l-14 -26 -69 27 c-62 25 -70 26 -74 11 -6 -28
21 -285 33 -307 6 -12 44 -57 85 -100 40 -43 78 -90 84 -104 6 -14 16 -32 23
-40 6 -8 19 -36 29 -62 10 -27 22 -48 27 -48 5 0 6 -5 3 -10 -3 -6 -3 -16 2
-23 8 -13 10 -18 12 -43 0 -8 6 -12 11 -9 6 4 11 -10 11 -34 2 -45 2 -48 13
-73 5 -10 9 -39 10 -65 2 -31 7 -47 14 -46 34 8 -12 -79 -84 -157 -158 -170
-400 -298 -666 -352 -94 -19 -145 -23 -298 -23 -177 1 -190 2 -305 33 -185 50
-302 98 -400 164 -82 55 -125 98 -124 122 1 18 2 18 6 3 3 -13 10 -16 25 -11
14 4 18 2 14 -5 -4 -6 -3 -11 3 -11 21 0 20 19 -1 34 -12 9 -18 19 -14 23 5 5
11 2 13 -5 3 -6 9 -10 14 -6 5 3 9 1 9 -5 0 -6 7 -8 15 -5 11 4 12 11 5 24 -8
15 -6 17 10 13 11 -3 20 -9 20 -14 0 -5 9 -9 20 -9 11 0 20 -4 20 -10 0 -5 7
-10 15 -10 8 0 15 -7 15 -15 0 -8 9 -15 20 -15 11 0 20 -7 20 -15 0 -21 69
-35 102 -21 20 9 13 37 -8 29 -8 -3 -14 0 -14 6 0 6 5 11 11 11 6 0 9 6 6 13
-2 6 -10 11 -17 9 -18 -4 -3 49 18 67 15 12 15 12 -6 6 -23 -7 -24 -7 -5 12
20 21 53 19 53 -4 0 -8 4 -12 9 -9 5 3 12 -1 15 -10 3 -8 2 -12 -4 -9 -21 13
-9 -7 24 -40 19 -19 46 -37 61 -41 15 -4 30 -17 36 -31 5 -14 18 -27 29 -30
11 -3 18 -9 15 -13 -6 -10 69 -78 99 -90 13 -5 32 -7 42 -6 11 2 29 -1 42 -5
13 -5 22 -5 22 1 0 6 3 9 8 8 24 -7 96 37 87 52 -3 4 3 7 12 6 12 -1 21 11 29
33 6 18 18 37 27 42 23 13 46 64 36 80 -14 22 -10 51 9 65 9 7 13 14 7 14 -14
0 -11 100 4 128 10 19 9 23 -5 29 -15 6 -15 7 0 15 13 8 15 13 5 24 -6 7 -15
12 -19 9 -11 -7 -35 24 -26 33 4 4 12 7 17 7 5 0 15 11 22 25 7 13 24 31 37
38 24 13 23 13 -14 8 -22 -3 -43 -10 -46 -17 -4 -6 -7 1 -7 15 0 14 3 23 8 20
5 -3 9 0 9 7 0 6 10 20 22 30 11 11 18 19 14 19 -4 0 -2 9 4 20 6 12 19 19 33
17 18 -2 23 4 25 33 4 42 18 61 40 53 10 -3 13 -1 7 4 -21 17 -2 74 40 116 15
15 32 27 37 27 6 0 8 7 5 15 -4 8 4 22 18 33 26 21 24 34 -3 25 -14 -4 -13 -1
2 11 10 8 24 13 29 9 7 -4 8 1 3 12 -4 13 2 27 20 46 16 17 24 34 21 44 -8 18
26 78 38 67 4 -4 5 5 3 21 -3 15 -2 27 1 27 11 0 33 69 26 80 -3 5 3 29 13 52
11 24 23 53 26 66 4 12 12 22 17 22 6 0 8 3 6 8 -3 4 7 34 23 66 16 36 29 54
33 45 3 -8 6 0 6 18 1 22 5 31 14 28 7 -3 13 4 13 19 1 18 -2 23 -15 19 -14
-4 -14 -3 1 9 11 10 15 22 11 38 -3 13 -2 21 3 17 5 -3 10 43 12 109 1 63 -2
114 -6 114 -5 0 -7 -11 -4 -25 2 -14 -3 -36 -12 -50 -9 -13 -16 -32 -16 -42 0
-15 2 -16 10 -3 13 20 13 -1 0 -35 -12 -31 -30 -25 -24 8 2 12 2 16 -2 10 -16
-35 -45 20 -39 77 4 47 -4 80 -21 80 -16 0 -19 -16 -4 -25 19 -12 10 -44 -20
-65 -36 -26 -48 -21 -42 20 2 18 0 30 -7 30 -15 0 -25 -45 -17 -80 4 -22 2
-30 -9 -30 -8 0 -12 -6 -9 -14 3 -8 -5 -21 -17 -30 -26 -18 -43 -11 -17 8 15
11 21 37 19 84 -1 18 -4 20 -18 13 -10 -5 -26 -12 -35 -15 -10 -3 -18 -14 -18
-24 0 -10 -7 -27 -16 -38 -15 -18 -15 -18 -11 9 6 36 -3 27 -20 -21 -7 -20
-11 -49 -8 -63 6 -27 -16 -56 -34 -45 -5 4 -13 1 -17 -5 -10 -17 18 -30 35
-16 11 9 15 9 18 0 6 -18 23 -16 23 1 0 8 5 16 10 18 6 2 12 13 13 26 1 12 8
22 17 22 8 0 26 3 39 7 20 5 22 4 14 -11 -8 -14 -3 -24 19 -46 32 -32 34 -46
13 -86 -12 -24 -15 -25 -15 -9 0 14 -3 16 -8 7 -5 -7 -17 -10 -28 -7 -18 6
-18 6 -1 -8 21 -17 23 -39 2 -31 -11 5 -15 -1 -15 -20 0 -16 -6 -26 -15 -26
-18 0 -20 -27 -3 -32 8 -3 4 -12 -9 -25 -12 -12 -19 -24 -15 -27 3 -3 -2 -6
-11 -6 -9 0 -17 7 -17 16 0 19 -22 42 -35 37 -6 -2 -11 6 -12 18 -3 30 -9 34
-35 21 l-23 -11 23 0 c26 -1 29 -19 5 -28 -27 -10 -55 -39 -53 -54 5 -35 -2
-47 -30 -52 -25 -6 -30 -11 -30 -37 0 -16 -3 -30 -7 -31 -5 0 -16 -2 -25 -4
-19 -3 -40 17 -36 33 2 5 -1 9 -7 8 -5 0 -9 -6 -9 -13 1 -6 -4 -14 -12 -17 -8
-3 -11 0 -8 8 3 8 0 17 -7 22 -7 4 -10 3 -6 -3 4 -6 -1 -14 -10 -17 -9 -4 -20
-1 -24 6 -6 9 -11 5 -18 -12 -7 -18 -10 -20 -10 -7 -1 9 -6 17 -12 17 -5 0 -7
-4 -4 -10 6 -9 -50 -16 -97 -12 -10 1 -18 -3 -18 -8 0 -6 -5 -10 -11 -10 -6 0
-9 7 -5 15 4 12 2 13 -13 5 -14 -7 -21 -6 -23 2 -3 7 -9 8 -18 3 -21 -13 -50
-13 -51 -1 0 6 -4 2 -9 -9 -5 -11 -9 -14 -9 -6 -1 11 -4 11 -16 1 -12 -10 -15
-9 -15 6 0 16 -2 17 -10 4 -8 -12 -10 -12 -10 5 0 16 -2 17 -10 5 -8 -12 -11
-12 -27 1 -20 17 -60 19 -82 5 -10 -6 -16 -5 -19 2 -2 7 -12 12 -23 12 -10 0
-19 7 -19 15 0 17 -16 20 -25 5 -11 -18 -31 -11 -45 15 -12 22 -14 23 -25 8
-8 -10 -14 -12 -19 -5 -3 6 -1 14 5 17 7 5 -1 20 -23 42 -21 23 -29 37 -20 40
6 3 12 9 12 14 0 6 -8 6 -19 -1 -25 -13 -31 -13 -31 0 0 6 7 10 15 10 8 0 15
5 15 11 0 6 -9 9 -20 6 -11 -3 -20 -1 -20 4 0 5 5 9 10 9 14 0 12 18 -2 23 -7
2 0 3 15 1 15 -2 25 0 22 5 -3 5 0 13 6 16 6 4 8 18 5 31 -4 14 -2 24 4 24 5
0 10 4 10 8 0 5 -20 8 -44 7 -29 -2 -46 2 -50 10 -3 9 2 11 16 7 14 -3 19 -1
14 6 -4 8 0 12 11 13 14 0 12 3 -6 10 -18 7 -27 6 -33 -3 -5 -9 -8 -7 -8 8 0
17 5 20 24 17 18 -4 26 0 31 18 l7 22 14 -24 c7 -13 13 -18 14 -10 0 9 8 12
24 9 15 -3 27 0 30 8 8 22 26 16 27 -8 0 -22 1 -22 8 -3 5 12 4 23 -3 27 -17
11 -5 15 77 22 81 7 105 -5 47 -25 -16 -6 -28 -14 -25 -19 8 -13 -32 -19 -45
-6 -9 8 -16 5 -30 -12 -11 -13 -24 -21 -29 -18 -5 3 -11 -4 -15 -17 -3 -12 -1
-23 4 -25 6 -2 10 -10 10 -18 0 -8 7 -17 15 -20 8 -4 15 -17 15 -31 0 -17 4
-23 13 -20 7 3 32 2 55 -3 26 -4 45 -3 53 4 8 8 13 8 16 -1 3 -7 12 -13 21
-14 10 -1 7 -4 -8 -9 -24 -8 -24 -8 5 -9 42 -1 162 17 212 31 33 9 42 16 38
29 -7 20 25 36 36 18 4 -8 13 -5 28 10 12 12 19 27 15 33 -4 6 -3 8 3 5 6 -4
14 0 17 9 3 8 10 12 16 9 5 -3 10 -2 10 3 0 4 -16 14 -35 22 -19 7 -37 21 -40
31 -5 16 -17 17 -118 12 -78 -4 -120 -2 -135 6 -34 18 -16 34 32 27 37 -5 44
-2 66 25 23 27 31 30 87 30 34 1 67 -2 73 -6 6 -4 61 -7 121 -6 63 0 109 -4
109 -9 0 -6 11 -10 25 -10 14 0 25 -4 25 -10 0 -5 9 -10 19 -10 15 0 20 -9 23
-40 3 -39 -11 -58 -33 -44 -5 3 -9 0 -9 -6 0 -6 11 -15 25 -20 14 -5 28 -17
30 -25 14 -44 17 -50 22 -37 3 7 -2 23 -11 36 -14 22 -14 25 1 30 12 5 14 9 5
18 -18 18 -14 30 8 23 12 -4 20 -2 20 5 0 6 5 8 12 4 8 -5 9 -2 4 12 -5 10
-10 50 -13 89 -4 73 -9 88 -22 66 -7 -10 -10 -10 -16 -1 -4 7 -2 16 5 20 8 5
7 9 -4 13 -9 4 -16 13 -16 22 0 8 -4 15 -10 15 -5 0 -10 -4 -10 -10 0 -5 -9
-10 -21 -10 -15 0 -19 5 -15 15 4 13 -2 14 -36 9 -28 -5 -39 -4 -35 3 4 7 -5
10 -26 9 -20 0 -35 -7 -39 -18 -9 -22 -62 -24 -115 -4 -45 17 -111 30 -135 27
-31 -4 -20 16 18 34 48 22 70 42 103 90 23 34 61 128 61 151 0 3 -24 4 -52 1
-29 -2 -64 -1 -76 4 -17 7 -32 4 -53 -8 -25 -15 -34 -15 -64 -5 -25 10 -44 10
-71 3 -21 -6 -45 -6 -59 -1 -13 5 -55 6 -94 3 l-71 -6 0 34 c0 19 9 52 19 74
41 91 34 122 -13 63 -14 -18 -32 -40 -40 -48 -20 -22 -29 -57 -16 -65 6 -3 8
-11 5 -16 -4 -5 1 -9 9 -9 10 0 16 -9 16 -26 0 -14 4 -23 9 -20 8 6 27 -102
23 -136 -1 -11 5 -18 16 -18 15 0 17 -7 14 -35 -4 -30 -1 -35 24 -41 18 -5 29
-3 32 4 5 15 32 16 32 2 0 -5 8 -11 18 -11 14 -1 13 -2 -3 -6 -11 -3 -42 -15
-70 -28 -73 -33 -92 -37 -100 -24 -4 6 -2 15 5 19 9 6 10 12 1 26 -10 18 -10
18 -11 -1 0 -17 -2 -17 -10 -5 -5 8 -10 11 -10 5 0 -15 -53 -15 -65 0 -12 17
-37 2 -49 -30 -7 -18 -9 -18 -19 -4 -11 14 -14 14 -31 -3 -32 -30 -46 -83 -33
-124 7 -24 7 -38 1 -42 -6 -4 -13 -15 -17 -24 -5 -16 -11 -13 -41 17 -38 37
-52 43 -59 23 -2 -7 -8 -1 -12 14 -4 15 -16 30 -26 33 -20 7 -27 35 -9 35 6 0
15 12 21 27 8 22 12 25 20 13 8 -11 9 -9 4 8 -8 26 10 53 30 46 10 -4 13 7 13
45 1 28 3 55 6 60 7 11 -17 32 -41 35 -12 2 -17 10 -15 25 2 14 -2 21 -13 21
-9 0 -13 -4 -10 -10 3 -5 2 -10 -4 -10 -5 0 -13 9 -16 21 -6 17 -9 18 -22 7
-13 -10 -17 -10 -20 0 -6 16 -30 16 -36 0 -3 -7 -6 -4 -6 7 -1 16 -3 17 -11 5
-7 -12 -11 -10 -19 10 -8 22 -10 18 -10 -25 -1 -99 24 -155 69 -155 15 0 20
-5 17 -14 -4 -10 -1 -13 9 -9 11 4 14 -6 14 -48 0 -29 -3 -49 -7 -46 -3 4 -6
20 -5 36 0 22 -3 28 -16 25 -12 -3 -22 6 -32 28 -8 18 -20 32 -27 31 -6 -1
-15 24 -21 60 -6 34 -14 80 -18 102 -4 22 -7 43 -6 48 1 4 -2 7 -8 7 -5 0 -10
11 -10 24 0 14 -5 28 -11 32 -8 5 -9 -6 -4 -37 6 -43 6 -43 -10 -21 -9 12 -22
22 -28 22 -7 0 -4 -5 6 -11 9 -5 17 -19 17 -31 0 -11 6 -26 14 -32 24 -19 30
-55 9 -63 -10 -4 -24 -13 -31 -20 -7 -7 -20 -13 -28 -13 -12 0 -12 -4 2 -26
14 -20 22 -24 43 -19 14 4 29 11 32 17 8 13 16 0 19 -32 4 -42 0 -61 -9 -55
-5 3 -12 1 -16 -5 -4 -6 -19 -4 -43 6 -20 9 -44 17 -52 18 -8 1 -22 17 -32 35
-15 31 -15 34 3 52 10 10 19 24 19 30 0 22 -22 49 -40 49 -27 0 -77 46 -84 77
-17 71 -76 191 -76 154 0 -5 5 -13 10 -16 6 -4 7 -11 4 -17 -4 -7 -10 -5 -16
6 -5 9 -17 16 -26 16 -9 0 -23 9 -30 21 -11 18 -11 24 3 39 12 13 18 47 22
124 5 92 4 106 -11 112 -17 7 -22 49 -6 59 5 3 7 12 4 20 -4 8 -10 12 -15 9
-5 -3 -9 0 -9 5 0 6 5 11 10 11 23 0 7 18 -21 24 -17 3 -28 10 -24 16 3 5 -6
12 -20 15 -14 3 -36 7 -50 10 -42 9 -52 74 -11 75 6 0 22 10 36 21 14 11 19
18 13 14 -7 -3 -13 -2 -13 3 0 5 11 14 23 19 20 9 29 7 51 -10 23 -18 26 -27
21 -52 -7 -31 -8 -76 -1 -82 2 -2 19 12 39 32 20 20 46 36 61 36 14 1 32 2 39
3 6 1 24 -1 39 -5 17 -5 29 -3 32 4 3 7 4 -1 4 -18 -1 -29 13 -82 48 -175 9
-25 18 -65 20 -90 3 -41 1 -46 -19 -46 -12 0 -30 10 -40 23 -10 13 -23 23 -29
23 -6 0 -32 16 -58 35 -26 19 -52 35 -58 35 -12 0 -9 -191 3 -210 12 -20 34
-10 40 20 10 45 37 55 69 25 15 -14 32 -25 39 -25 7 0 0 -11 -14 -23 -14 -13
-28 -31 -32 -40 -3 -9 -13 -17 -21 -17 -7 0 -17 -12 -21 -27 -5 -22 -2 -31 14
-42 12 -7 21 -19 21 -26 0 -7 6 -15 14 -18 8 -3 17 -19 21 -36 5 -23 12 -31
28 -30 12 0 16 3 10 6 -19 7 -16 23 10 43 20 17 23 17 28 2 5 -13 9 -10 14 13
4 17 14 37 22 46 10 13 12 26 4 58 -9 40 -14 186 -15 426 -1 82 2 109 11 108
9 -2 10 4 5 20 -4 12 -7 36 -6 52 2 94 6 139 11 128 2 -7 11 -13 19 -13 7 0
12 -6 10 -12 -1 -7 -1 -10 1 -5 3 4 9 5 14 1 5 -3 9 -1 9 4 0 6 -7 12 -15 16
-8 3 -15 17 -15 31 0 14 -4 25 -9 25 -5 0 -12 30 -16 68 -4 37 -10 72 -15 77
-4 6 -10 24 -12 40 -3 17 -8 39 -13 50 -5 14 -4 16 3 7 7 -11 11 -7 16 14 4
16 20 46 36 67 25 35 28 36 26 14 0 -14 -4 -23 -8 -20 -5 2 -8 -2 -9 -9 0 -7
-2 -25 -4 -40 -4 -34 19 -28 40 11 l14 26 1 -26 c0 -14 3 -28 6 -32 10 -10 34
4 27 17 -4 6 1 5 10 -3 9 -7 17 -19 17 -27 0 -17 43 -31 48 -15 2 6 10 11 17
11 14 0 84 66 86 82 1 4 3 13 4 18 1 6 3 15 4 21 1 8 7 7 18 -2 10 -8 14 -9
10 -2 -4 6 -3 14 3 18 15 10 12 25 -6 25 -22 0 -12 24 12 27 19 3 19 3 0 -5
-18 -8 -18 -9 -2 -15 10 -4 18 -2 20 6 12 40 17 47 31 47 9 0 28 11 43 25 15
14 33 25 40 25 14 0 95 51 100 63 2 4 11 2 20 -5 10 -8 13 -9 9 -1 -10 16 25
26 103 28 36 1 72 5 80 9 9 3 27 5 40 3 15 -2 30 3 37 12 8 10 12 12 13 4 0
-25 20 -12 20 13 0 19 4 25 15 20 8 -3 31 4 51 16 23 13 38 17 42 11 10 -15
49 -25 56 -14 3 5 17 8 31 6 14 -1 25 2 25 7 0 5 5 6 10 3 6 -4 16 -3 23 2 7
6 39 10 72 11 51 0 63 4 82 26 12 14 31 26 42 26 11 0 23 5 26 10 9 15 35 12
109 -10z m476 -80 c0 -5 -2 -10 -4 -10 -3 0 -8 5 -11 10 -3 6 -1 10 4 10 6 0
11 -4 11 -10z m-1119 -53 c-10 -9 -11 -8 -5 6 3 10 9 15 12 12 3 -3 0 -11 -7
-18z m1179 -72 c0 -5 -5 -3 -10 5 -5 8 -10 20 -10 25 0 6 5 3 10 -5 5 -8 10
-19 10 -25z m-2130 11 c0 -8 -7 -21 -15 -29 -7 -8 -17 -26 -21 -41 -3 -14 -10
-24 -14 -21 -5 3 -6 -4 -3 -14 3 -11 0 -28 -6 -38 -7 -12 -10 -13 -11 -4 0 11
-3 11 -16 0 -14 -12 -14 -9 0 26 9 22 23 45 32 51 12 9 12 13 2 17 -9 3 -4 14
16 36 34 35 36 36 36 17z m3588 -45 c6 0 11 -4 10 -8 -1 -5 5 -22 14 -39 20
-37 14 -67 -17 -84 -25 -13 -85 -5 -85 11 0 6 -8 9 -17 8 -38 -3 -43 1 -43 40
0 22 5 43 10 46 6 4 8 10 5 15 -8 13 57 19 123 11z m-3487 -194 c-10 -9 -11
-8 -5 6 3 10 9 15 12 12 3 -3 0 -11 -7 -18z m264 5 c-3 -3 -11 0 -18 7 -9 10
-8 11 6 5 10 -3 15 -9 12 -12z m-1002 -176 c-5 -25 -4 -28 12 -23 13 6 30 -6
66 -45 56 -61 65 -85 45 -133 -12 -27 -26 -40 -61 -55 -60 -26 -87 -25 -112 3
-33 35 -41 59 -41 112 0 36 5 54 19 66 10 9 16 18 14 21 -3 2 6 11 20 18 20
11 25 21 25 54 0 29 3 37 9 26 6 -8 7 -27 4 -44z m443 -51 c-1 -13 -5 -27 -9
-30 -4 -3 -5 -2 -2 1 2 4 -3 13 -11 22 -13 12 -13 16 -2 23 21 14 25 11 24
-16z m3971 -587 c32 -12 63 -57 63 -93 0 -25 -52 -75 -77 -75 -13 0 -23 4 -23
9 0 5 -25 15 -55 21 -38 8 -59 18 -66 32 -16 29 -20 90 -7 105 13 17 120 17
165 1z m-3977 -218 c0 -5 -5 -10 -11 -10 -5 0 -7 5 -4 10 3 6 8 10 11 10 2 0
4 -4 4 -10z m3959 -68 c20 -9 39 -27 45 -44 6 -15 14 -28 18 -28 4 0 8 -12 8
-26 0 -14 3 -23 8 -20 9 6 47 -119 62 -204 14 -87 17 -399 3 -425 -6 -11 -19
-39 -29 -63 -9 -24 -32 -56 -50 -71 -28 -25 -44 -51 -44 -74 1 -19 -32 -67
-45 -67 -8 0 -23 -9 -33 -21 -23 -24 -109 -49 -169 -49 -31 0 -46 5 -57 21 -9
13 -21 19 -30 16 -9 -4 -16 -2 -16 3 0 12 -67 13 -74 1 -3 -5 -31 -12 -62 -16
-45 -5 -59 -3 -75 11 -10 9 -19 14 -19 9 0 -4 -7 -2 -15 5 -9 8 -29 10 -51 7
-21 -4 -56 1 -85 10 -49 16 -50 17 -44 52 3 19 8 37 11 40 3 3 33 7 67 8 34 1
72 4 85 8 14 5 22 3 22 -4 0 -6 3 -10 8 -10 27 4 54 -4 70 -22 l20 -20 25 32
c22 28 77 50 77 31 0 -4 11 -20 25 -37 14 -16 24 -25 23 -20 -3 14 22 86 39
114 13 20 13 37 3 116 -12 97 -6 156 25 259 8 27 15 70 15 96 0 51 16 107 37
128 17 17 16 38 -2 107 -13 52 -13 58 6 94 23 45 46 67 74 73 30 7 86 -2 124
-20z m-4224 -50 c6 -4 22 -23 35 -42 24 -34 25 -38 21 -195 -8 -362 -2 -591
15 -606 26 -21 203 -39 329 -32 66 3 125 10 131 15 8 6 10 51 7 150 -5 151 5
205 48 244 14 13 16 19 7 25 -17 11 -10 15 33 22 l37 5 6 -60 c18 -153 84
-334 151 -412 14 -16 25 -37 25 -47 0 -29 11 -49 24 -42 8 5 8 3 0 -8 -17 -20
-11 -92 9 -122 13 -20 15 -32 7 -52 -5 -14 -12 -25 -15 -25 -4 0 -4 4 0 9 3 5
0 21 -6 35 -14 31 -52 35 -88 10 -21 -15 -23 -23 -19 -71 3 -30 11 -58 18 -63
22 -13 -130 -249 -209 -325 -30 -28 -35 -29 -134 -31 -108 -1 -157 -8 -218
-29 -20 -8 -39 -13 -41 -12 -2 1 3 -3 10 -9 10 -9 9 -13 -5 -18 -10 -4 -19 -2
-21 3 -2 6 -11 11 -20 12 -14 0 -13 2 3 9 18 7 19 8 2 15 -16 7 -87 72 -87 81
0 6 -42 55 -76 88 -45 43 -65 88 -58 125 7 33 55 81 81 81 9 0 24 6 32 14 22
19 77 30 86 16 3 -5 10 -8 15 -5 5 3 29 1 53 -4 81 -19 128 -21 175 -10 26 7
52 16 59 21 9 7 65 4 113 -5 18 -3 46 16 47 33 2 21 -6 24 -87 34 -25 3 -52 8
-60 10 -43 11 -60 19 -60 27 0 5 -15 18 -32 29 -31 19 -49 20 -333 19 -174 -1
-305 -6 -312 -11 -15 -12 -75 12 -69 27 2 5 9 9 15 8 6 -2 10 0 9 5 -1 4 4 20
11 36 6 16 10 31 7 33 -12 12 59 62 106 73 29 7 81 26 116 43 48 23 61 34 57
47 -3 9 -7 39 -10 66 -2 27 -6 60 -9 74 -3 14 -9 41 -12 60 -4 19 -11 41 -16
47 -6 7 -8 24 -6 38 3 14 1 22 -4 18 -6 -3 -9 14 -7 43 1 27 -3 67 -9 89 -6
22 -12 43 -12 47 0 4 -7 25 -14 45 -7 21 -14 61 -16 88 -1 28 -3 61 -4 75 -1
14 2 40 8 59 17 55 123 110 161 83z m-637 -39 c14 -28 21 -78 28 -216 6 -138
-3 -191 -34 -180 -9 4 -13 2 -9 -4 4 -6 -4 -14 -19 -17 -15 -4 -27 -6 -28 -4
-1 2 -14 19 -29 40 -51 69 -70 134 -63 218 5 60 12 83 34 115 42 60 102 84
120 48z m3942 -263 c0 -5 -2 -10 -4 -10 -3 0 -8 5 -11 10 -3 6 -1 10 4 10 6 0
11 -4 11 -10z m-2605 -126 c-5 -51 -15 -55 -15 -6 0 23 4 42 9 42 5 0 8 -16 6
-36z m35 -4 c0 -11 -4 -20 -9 -20 -5 0 -7 9 -4 20 3 11 7 20 9 20 2 0 4 -9 4
-20z m2737 -46 c15 -14 51 -49 79 -76 l52 -51 -34 -56 c-19 -31 -34 -61 -34
-68 0 -30 -108 -55 -136 -32 -9 7 -26 18 -37 24 -12 6 -26 20 -32 32 -11 21
-11 20 -27 -7 -12 -21 -31 -33 -69 -44 -49 -15 -54 -15 -83 2 -47 27 -70 78
-62 135 10 62 44 103 93 109 60 7 97 -8 118 -46 l19 -35 23 25 c25 27 29 57
13 100 -7 18 -7 30 0 39 13 16 74 -11 117 -51z m-4107 6 c0 -5 -7 -10 -15 -10
-8 0 -15 5 -15 10 0 6 7 10 15 10 8 0 15 -4 15 -10z m4377 -10 c-3 -11 -1 -20
3 -20 10 0 2 -51 -9 -63 -5 -5 -19 -7 -32 -5 -48 6 -27 108 22 108 16 0 20 -5
16 -20z m-3017 -16 c0 -2 -7 -4 -15 -4 -8 0 -15 4 -15 10 0 5 7 7 15 4 8 -4
15 -8 15 -10z m71 -37 c-6 -8 -9 -22 -5 -31 8 -21 -5 -21 -22 2 -18 23 -18 43
0 36 8 -3 17 0 21 6 4 6 9 9 12 6 3 -3 1 -12 -6 -19z m-1427 1 c-4 -7 -3 -8 5
-4 6 4 17 3 24 -2 7 -5 31 -12 55 -15 77 -10 117 -67 110 -154 -5 -62 -23 -85
-90 -117 -23 -12 -46 -30 -52 -40 -29 -52 -54 -76 -73 -69 -12 5 -14 3 -9 -8
4 -8 -2 -3 -13 11 -12 14 -30 41 -41 61 -13 25 -32 42 -58 52 -62 25 -92 68
-92 132 0 46 5 59 31 90 19 21 47 39 72 47 23 6 46 15 52 20 15 13 87 10 79
-4z m926 -13 c0 -14 -4 -25 -9 -25 -4 0 -6 11 -3 25 2 14 6 25 8 25 2 0 4 -11
4 -25z m137 9 c3 -8 12 -13 19 -10 11 4 14 -6 13 -47 -2 -41 -7 -57 -27 -75
-17 -17 -27 -20 -32 -12 -6 9 -13 9 -29 -1 -18 -12 -23 -11 -36 9 -9 12 -22
22 -30 22 -15 0 -41 39 -28 41 4 1 19 0 33 -1 20 -2 22 0 12 12 -12 15 -10 19
42 58 17 14 18 13 12 -8 -5 -14 -2 -27 8 -37 19 -20 25 -19 21 3 -1 9 1 25 6
34 7 12 4 18 -9 21 -16 4 -16 5 1 6 10 0 20 -6 24 -15z m1921 -15 c-3 -8 -7
-3 -11 10 -4 17 -3 21 5 13 5 -5 8 -16 6 -23z m-73 -19 c-10 -11 -21 -17 -24
-14 -3 3 3 12 13 20 28 20 32 17 11 -6z m-1512 -44 c-3 -4 -9 -2 -14 5 -13 22
-11 31 5 17 8 -7 12 -17 9 -22z m2867 7 c0 -30 -9 -27 -15 6 -2 11 0 21 6 21
5 0 9 -12 9 -27z m-1386 8 c3 -5 0 -14 -8 -20 -10 -9 -15 -8 -19 3 -9 22 15
37 27 17z m57 2 c-7 -3 -9 -8 -4 -12 5 -3 4 -16 -4 -31 l-13 -25 0 31 c0 33 7
44 24 43 6 0 5 -3 -3 -6z m-1341 -17 c0 -3 -4 -8 -10 -11 -5 -3 -10 -1 -10 4
0 6 5 11 10 11 6 0 10 -2 10 -4z m-19 -53 c-8 -15 -10 -15 -11 -2 0 17 10 32
18 25 2 -3 -1 -13 -7 -23z m1339 -25 c0 -18 -2 -20 -9 -8 -6 8 -7 18 -5 22 9
14 14 9 14 -14z m-1210 -54 c0 -15 -6 -24 -16 -24 -11 0 -14 5 -10 16 3 9 6
22 6 30 0 9 5 12 10 9 6 -3 10 -17 10 -31z m-140 1 c-7 -9 -15 -13 -19 -10 -3
3 1 10 9 15 21 14 24 12 10 -5z m27 -20 c0 -8 -4 -12 -9 -9 -5 3 -6 10 -3 15
9 13 12 11 12 -6z m2010 -5 c15 0 42 -8 58 -17 23 -13 53 -16 137 -14 127 2
183 -10 220 -50 50 -51 35 -121 -39 -197 -24 -23 -43 -47 -43 -52 0 -6 -9 -10
-21 -10 -28 0 -59 -18 -59 -34 0 -8 -16 -28 -35 -44 -34 -30 -75 -43 -125 -39
-21 2 -27 -5 -43 -50 -17 -46 -37 -70 -37 -44 0 4 -16 38 -36 74 -30 54 -44
68 -84 87 -26 12 -67 39 -91 60 -39 33 -42 39 -30 54 9 11 14 37 12 76 -1 32
3 61 9 65 5 3 10 15 10 25 0 48 71 117 107 103 10 -4 14 -2 10 4 -9 15 14 22
35 12 9 -5 29 -9 45 -9z m-909 -114 c-7 -8 -15 -12 -17 -11 -5 6 10 25 20 25
5 0 4 -6 -3 -14z m-38 -5 c0 -12 -20 -25 -27 -18 -7 7 6 27 18 27 5 0 9 -4 9
-9z m-920 -45 c0 -11 -19 -15 -25 -6 -3 5 1 10 9 10 9 0 16 -2 16 -4z m2848
-172 c12 -4 22 -13 22 -20 0 -8 4 -14 9 -14 11 0 51 -105 51 -134 0 -33 -52
-100 -93 -120 -31 -14 -37 -22 -43 -61 -7 -47 -10 -49 -62 -39 -22 4 -28 11
-25 23 2 10 -4 38 -15 62 -42 95 -43 101 -36 170 5 56 12 74 35 100 16 18 29
30 29 27 0 -3 15 -2 33 2 42 10 67 11 95 4z m-4352 -29 c25 -24 25 -57 3 -112
-16 -40 -27 -53 -43 -54 -11 -1 -35 -2 -52 -4 -37 -3 -44 1 -67 37 -22 35 -22
40 6 36 21 -3 37 13 53 52 6 15 61 57 77 59 5 1 15 -6 23 -14z m1304 -66 c0
-11 -4 -18 -9 -15 -5 4 -9 -15 -9 -41 0 -46 0 -47 13 -23 14 24 14 24 15 3 0
-31 -10 -53 -26 -53 -11 0 -14 17 -14 69 0 63 3 73 28 80 1 1 2 -8 2 -20z
m2584 -30 c4 6 13 8 21 5 8 -4 13 -10 10 -14 -3 -4 2 -10 9 -13 8 -3 16 -1 18
5 3 7 9 6 19 -3 8 -8 24 -19 34 -25 16 -9 20 -22 20 -60 0 -27 -4 -55 -9 -61
-6 -10 -1 -13 18 -13 14 0 26 -4 26 -10 0 -5 -5 -10 -11 -10 -5 0 -7 -6 -4
-12 4 -7 1 -6 -7 2 -7 9 -26 14 -43 12 -22 -2 -37 4 -55 23 -14 15 -34 25 -50
25 -15 0 -38 10 -52 23 -20 18 -24 30 -20 59 5 45 38 84 57 68 9 -7 15 -8 19
-1z m-2579 -9 c3 -5 1 -10 -4 -10 -6 0 -11 5 -11 10 0 6 2 10 4 10 3 0 8 -4
11 -10z m2328 -47 c4 -3 26 -6 49 -6 72 1 92 -34 36 -63 -18 -9 -43 -25 -55
-37 l-22 -20 4 22 c3 19 2 21 -10 11 -11 -9 -12 -7 -8 8 4 16 -2 22 -29 28
-18 4 -27 9 -20 11 10 4 10 8 0 21 -10 12 -10 14 0 8 7 -4 15 -1 18 8 6 16 26
21 37 9z m-2293 -23 c-12 -8 -12 -10 -1 -10 11 0 11 -3 1 -15 -6 -8 -9 -18 -6
-24 4 -5 -4 -13 -16 -17 -13 -4 -24 -2 -26 5 -2 6 -8 9 -13 5 -5 -3 -9 1 -9 9
0 8 8 14 18 14 35 0 40 3 35 23 -4 15 0 20 13 20 16 0 17 -2 4 -10z m2123 -65
c20 -14 37 -27 37 -29 0 -6 -72 32 -84 44 -19 19 9 10 47 -15z m-3471 -16
c106 -32 228 -96 274 -142 67 -68 78 -98 81 -217 2 -79 6 -106 16 -108 8 -2
70 22 138 53 68 31 144 62 169 70 25 7 74 24 109 39 35 14 67 24 69 21 3 -3
-9 -18 -26 -35 -18 -17 -32 -32 -32 -35 0 -12 -48 -58 -80 -78 -19 -11 -44
-29 -55 -38 -11 -10 -40 -36 -65 -58 -25 -22 -51 -41 -57 -41 -7 0 -13 -6 -13
-14 0 -8 -9 -17 -19 -21 -11 -3 -23 -15 -26 -26 -4 -10 -12 -19 -20 -19 -11 0
-60 -22 -85 -38 -2 -2 2 -7 10 -12 8 -5 11 -13 6 -17 -5 -4 -11 -2 -13 5 -6
15 -29 16 -39 0 -5 -7 -3 -8 7 -3 11 7 12 6 2 -7 -7 -8 -10 -18 -6 -21 3 -4
-1 -7 -11 -7 -10 0 -14 -5 -10 -12 5 -7 3 -8 -5 -3 -18 10 -76 -46 -59 -57 10
-7 9 -8 -2 -7 -31 3 -39 -1 -33 -17 5 -13 2 -15 -15 -9 -16 4 -22 2 -22 -9 0
-9 -6 -13 -14 -10 -14 5 -59 -30 -50 -39 2 -2 -3 -10 -13 -18 -15 -12 -16 -12
-10 5 6 16 5 17 -7 6 -9 -6 -14 -17 -13 -23 1 -7 -5 -12 -13 -12 -8 0 -21 -8
-28 -17 -7 -10 -20 -15 -30 -12 -13 5 -14 4 -3 -4 15 -11 -2 -27 -19 -17 -5 3
-10 0 -10 -8 0 -8 -10 -17 -22 -21 -17 -4 -29 1 -44 20 -20 24 -82 45 -68 23
3 -5 -2 -9 -10 -9 -9 0 -16 5 -16 12 0 6 -9 2 -21 -10 -21 -23 -39 -21 -39 4
0 17 -12 18 -27 3 -8 -8 -16 -5 -30 10 -20 21 -60 20 -46 -2 3 -5 1 -7 -5 -3
-13 8 -63 -14 -79 -35 -7 -9 -25 -19 -40 -22 -15 -3 -32 -14 -38 -25 -39 -75
-66 -122 -71 -122 -4 0 -3 15 0 34 6 31 3 35 -41 66 -35 24 -55 48 -73 87 -14
29 -28 53 -33 53 -12 0 -27 48 -21 65 4 8 13 15 21 15 7 0 38 25 67 55 29 30
58 55 64 55 7 0 12 5 12 10 0 16 53 12 78 -6 25 -17 64 -86 60 -106 -6 -27 35
-18 79 19 100 84 131 106 213 147 119 61 150 79 150 92 0 6 -38 30 -83 53 -81
40 -85 41 -113 26 -20 -11 -51 -15 -102 -13 -71 2 -74 1 -102 -30 -17 -19 -37
-32 -52 -32 -33 0 -128 49 -128 66 0 8 -4 14 -10 14 -5 0 -12 16 -16 35 -5 28
1 48 27 101 19 37 39 69 46 71 19 8 16 47 -7 73 -22 26 -25 36 -10 45 6 4 8
10 5 15 -9 14 77 42 111 36 30 -6 60 -45 55 -73 -1 -6 12 -14 29 -18 16 -4 30
-11 30 -16 0 -6 15 -16 33 -24 39 -16 61 -2 65 42 4 55 24 121 43 141 10 12
19 24 19 28 0 19 63 78 88 83 2 1 36 -9 74 -20z m1373 1 c6 0 -3 -12 -20 -27
-19 -17 -31 -21 -33 -13 -3 9 -6 9 -13 -1 -6 -10 -9 -5 -9 16 0 20 3 26 9 17
7 -11 9 -11 14 1 3 9 14 14 24 12 10 -2 23 -4 28 -5z m2096 -68 c8 -22 8 -22
-16 -5 -28 21 -32 36 -9 31 9 -2 21 -13 25 -26z m-2013 4 c7 -4 9 -13 5 -19
-5 -8 -2 -8 9 1 13 10 15 9 11 -11 -3 -17 5 -33 31 -59 19 -19 33 -38 29 -41
-3 -4 5 -16 18 -28 13 -11 17 -17 9 -13 -13 7 -13 5 -2 -8 10 -13 10 -17 0
-21 -10 -4 -9 -9 5 -20 21 -18 22 -31 0 -53 -16 -16 -16 -16 5 -10 29 10 28
-1 -3 -26 -23 -18 -27 -46 -4 -33 5 4 9 1 9 -4 0 -6 -9 -11 -20 -11 -11 0 -20
5 -20 10 0 6 -8 10 -17 10 -13 0 -14 3 -5 12 19 19 14 28 -13 28 -34 0 -56 23
-90 93 -15 31 -31 57 -35 57 -13 0 -6 29 9 35 12 5 13 8 2 14 -15 10 -24 78
-10 87 5 3 7 8 5 12 -6 10 56 8 72 -2z m2440 -171 c23 -25 42 -52 42 -59 0 -7
9 -21 20 -31 24 -21 26 -35 6 -35 -8 0 -18 10 -22 23 -4 12 -15 28 -24 34 -10
7 -21 24 -24 38 -4 14 -23 41 -44 61 -20 19 -28 31 -17 26 11 -6 39 -31 63
-57z m-88 -2 c0 -22 -2 -25 -10 -13 -13 20 -13 40 0 40 6 0 10 -12 10 -27z
m-2183 -148 c0 -8 -8 -15 -18 -15 -12 0 -16 5 -13 15 4 8 12 15 18 15 7 0 13
-7 13 -15z m2248 -55 c3 -5 1 -10 -4 -10 -6 0 -11 5 -11 10 0 6 2 10 4 10 3 0
8 -4 11 -10z m-2315 -4 c0 -11 -19 -15 -25 -6 -3 5 1 10 9 10 9 0 16 -2 16 -4z
m65 -14 c17 -11 12 -36 -7 -40 -11 -2 -18 3 -18 13 0 9 -4 13 -10 10 -5 -3
-10 -2 -10 3 0 20 25 29 45 14z m-29 -47 c12 -12 13 -19 3 -37 -10 -18 -13
-20 -17 -8 -3 8 -12 20 -20 26 -15 11 -9 34 9 34 6 0 17 -7 25 -15z m89 -66
c6 -6 3 -9 -10 -7 -11 2 -21 -1 -21 -7 -1 -5 3 -9 8 -7 6 1 19 0 30 -4 23 -7
12 -24 -18 -28 -11 -2 -18 -10 -16 -20 2 -9 -4 -16 -14 -16 -11 0 -15 6 -11
20 3 11 2 18 -3 15 -11 -7 -19 30 -13 56 5 16 11 19 32 14 14 -4 30 -11 36
-16z m-1074 -53 c-7 -8 -21 -16 -33 -19 -19 -5 -18 -2 8 21 28 26 47 25 25 -2z
m822 -52 c-7 -20 -19 -17 -19 5 0 11 6 17 13 14 6 -3 9 -11 6 -19z m-861 -6
c-2 -10 -6 -18 -7 -18 -1 0 -5 8 -7 18 -3 11 0 19 7 19 7 0 10 -8 7 -19z m-87
-98 c3 -5 1 -10 -4 -10 -6 0 -11 5 -11 10 0 6 2 10 4 10 3 0 8 -4 11 -10z
m-15 -21 c12 -9 10 -10 -8 -6 -19 5 -21 3 -11 -9 9 -11 7 -14 -10 -14 -12 0
-19 5 -16 10 3 6 0 10 -7 10 -9 0 -9 3 2 10 19 12 31 12 50 -1z m1172 -4 c0
-5 -5 -11 -10 -13 -5 -1 -9 4 -9 13 0 9 4 14 9 13 5 -2 10 -8 10 -13z m-1252
-36 c0 -4 -13 -10 -29 -14 -41 -9 -58 -31 -43 -56 7 -10 8 -19 3 -19 -5 0 -13
10 -17 22 -6 21 -7 21 -20 3 -7 -10 -11 -22 -8 -26 3 -5 -8 -12 -23 -15 -15
-4 -33 -14 -40 -23 -6 -9 -15 -13 -19 -8 -4 4 -2 7 4 7 7 0 12 5 12 11 0 8 -5
8 -15 -1 -8 -7 -15 -18 -15 -24 0 -6 -20 -24 -45 -41 -38 -25 -45 -35 -46 -65
-1 -19 -1 -38 0 -42 0 -5 -6 -8 -14 -8 -8 0 -15 5 -15 10 0 6 -7 10 -15 10 -8
0 -23 4 -33 9 -9 5 -26 12 -37 16 -18 6 -17 9 15 35 71 59 182 130 192 124 7
-4 8 -2 4 4 -5 8 1 12 14 12 12 0 18 5 15 10 -3 6 1 10 9 10 9 0 16 3 16 8 0
4 17 16 38 26 20 10 44 22 52 26 18 10 60 9 60 -1z m32 -21 c-7 -7 -12 -8 -12
-2 0 14 12 26 19 19 2 -3 -1 -11 -7 -17z m-54 -24 c-9 -9 -22 -14 -30 -11 -8
3 -4 8 12 15 35 15 37 14 18 -4z m-14 -54 c-30 -45 -54 -56 -27 -12 15 24 42
52 50 52 2 0 -9 -18 -23 -40z m-59 -80 c-8 -16 -25 -35 -38 -41 -12 -6 -32
-23 -45 -37 -12 -14 -24 -23 -27 -20 -5 4 2 12 69 78 20 19 36 38 36 42 0 4 5
8 10 8 6 0 4 -13 -5 -30z m-418 -41 c1 -19 0 -40 -2 -48 -8 -21 -35 6 -35 34
0 61 33 73 37 14z m1071 -9 c-1 -26 -6 -40 -14 -40 -10 0 -11 6 -4 25 5 14 7
32 4 40 -4 8 -1 15 5 15 6 0 10 -17 9 -40z m3885 -64 c4 -10 1 -13 -8 -9 -8 3
-12 9 -9 14 7 12 11 11 17 -5z m-1262 -13 c13 -16 12 -17 -3 -4 -17 13 -22 21
-14 21 2 0 10 -8 17 -17z m-2621 -3 c0 -5 -7 -10 -16 -10 -8 0 -12 5 -9 10 3
6 10 10 16 10 5 0 9 -4 9 -10z m-853 -6 c-3 -3 -12 -4 -19 -1 -8 3 -5 6 6 6
11 1 17 -2 13 -5z m29 -29 c14 -13 12 -15 -15 -15 -32 0 -50 15 -29 23 22 9
29 8 44 -8z m824 -15 c0 -5 -7 -10 -15 -10 -8 0 -15 5 -15 10 0 6 7 10 15 10
8 0 15 -4 15 -10z m2664 -6 c3 -8 2 -12 -4 -9 -6 3 -10 10 -10 16 0 14 7 11
14 -7z m-2664 -44 c0 -5 -7 -10 -15 -10 -8 0 -15 5 -15 10 0 6 7 10 15 10 8 0
15 -4 15 -10z m2700 -22 c0 -6 8 -21 18 -32 10 -13 11 -16 2 -9 -8 6 -19 11
-24 10 -5 -1 -10 10 -12 26 -1 15 2 25 7 22 5 -4 9 -11 9 -17z m-2710 -28 c0
-5 -7 -7 -15 -4 -8 4 -15 8 -15 10 0 2 7 4 15 4 8 0 15 -4 15 -10z m-15 -40
c3 -5 -1 -10 -9 -10 -9 0 -16 5 -16 10 0 6 4 10 9 10 6 0 13 -4 16 -10z m2380
0 c-3 -5 -12 -10 -18 -10 -7 0 -6 4 3 10 19 12 23 12 15 0z m443 -84 c12 -22
31 -52 42 -64 12 -13 20 -25 18 -28 -9 -8 -40 33 -83 111 -25 45 -34 67 -21
51 13 -15 33 -47 44 -70z m-3981 42 c-3 -8 -6 -5 -6 6 -1 11 2 17 5 13 3 -3 4
-12 1 -19z m1148 -8 c3 -5 -1 -10 -9 -10 -9 0 -16 5 -16 10 0 6 4 10 9 10 6 0
13 -4 16 -10z m-20 -40 c3 -5 -1 -10 -9 -10 -9 0 -16 5 -16 10 0 6 4 10 9 10
6 0 13 -4 16 -10z m3735 0 c0 -5 -2 -10 -4 -10 -3 0 -8 5 -11 10 -3 6 -1 10 4
10 6 0 11 -4 11 -10z m-3745 -50 c3 -5 -1 -10 -9 -10 -8 0 -18 5 -21 10 -3 6
1 10 9 10 8 0 18 -4 21 -10z m3711 -27 c4 4 12 -3 19 -16 12 -23 3 -37 -24
-37 -8 0 -11 6 -7 16 5 13 4 14 -7 6 -11 -9 -13 -6 -9 19 3 21 7 27 13 18 4
-7 11 -10 15 -6z m-4890 -30 c-11 -11 -17 4 -9 23 7 18 8 18 11 1 2 -10 1 -21
-2 -24z m1154 17 c0 -5 -4 -10 -9 -10 -6 0 -13 5 -16 10 -3 6 1 10 9 10 9 0
16 -4 16 -10z m2975 -20 c3 -5 2 -10 -4 -10 -5 0 -13 5 -16 10 -3 6 -2 10 4
10 5 0 13 -4 16 -10z m-3000 -20 c3 -5 -1 -10 -9 -10 -9 0 -16 5 -16 10 0 6 4
10 9 10 6 0 13 -4 16 -10z m3040 -20 c10 -11 16 -20 13 -20 -3 0 -13 9 -23 20
-10 11 -16 20 -13 20 3 0 13 -9 23 -20z m742 -7 c2 -6 -6 -13 -19 -15 -13 -2
-22 -9 -20 -16 1 -6 -2 -12 -8 -12 -5 0 -10 13 -10 29 0 26 3 30 27 28 14 -1
28 -8 30 -14z m35 -28 c9 -20 9 -20 -6 -1 -9 11 -16 27 -15 35 0 14 1 14 6 1
3 -8 10 -24 15 -35z m-3842 15 c0 -5 -4 -10 -9 -10 -6 0 -13 5 -16 10 -3 6 1
10 9 10 9 0 16 -4 16 -10z m3390 -34 c0 -6 -7 -2 -15 8 -10 13 -15 15 -15 6 0
-7 -3 -11 -6 -7 -3 3 -3 11 1 17 8 13 35 -5 35 -24z m-286 16 c3 -5 -1 -9 -9
-9 -8 0 -12 4 -9 9 3 4 7 8 9 8 2 0 6 -4 9 -8z m-40 -17 c-4 -8 -11 -12 -16
-9 -6 4 -5 10 3 15 19 12 19 11 13 -6z m916 -18 c0 -5 -4 -5 -10 -2 -5 3 -10
14 -10 23 0 15 2 15 10 2 5 -8 10 -19 10 -23z m-4010 13 c0 -5 -4 -10 -9 -10
-6 0 -13 5 -16 10 -3 6 1 10 9 10 9 0 16 -4 16 -10z m3426 -76 c-1 -39 4 -73
11 -83 7 -9 12 -20 12 -26 0 -5 -4 -2 -10 8 -10 18 -11 18 -25 0 -10 -12 -13
-13 -10 -3 2 8 7 28 10 43 6 25 5 27 -13 17 -14 -7 -22 -7 -27 2 -4 7 -3 8 4
4 7 -4 12 -2 12 3 0 6 5 10 11 8 15 -3 19 43 7 67 -7 13 -7 16 1 12 6 -4 11
-2 11 3 0 6 2 11 3 11 2 0 3 -30 3 -66z m-3456 36 c0 -5 -7 -7 -15 -4 -8 4
-12 10 -9 15 6 11 24 2 24 -11z m4040 -14 c0 -3 -4 -8 -10 -11 -5 -3 -10 -1
-10 4 0 6 5 11 10 11 6 0 10 -2 10 -4z m-4072 -24 c2 -7 -2 -10 -12 -6 -9 3
-16 11 -16 16 0 13 23 5 28 -10z m3226 -11 c9 -7 16 -19 16 -25 0 -6 -7 -2
-16 9 -8 11 -19 20 -24 20 -4 0 -11 3 -15 7 -12 12 23 2 39 -11z m-3254 -21
c0 -5 -4 -10 -9 -10 -6 0 -13 5 -16 10 -3 6 1 10 9 10 9 0 16 -4 16 -10z
m3373 -50 c5 0 5 5 1 12 -4 7 -3 8 4 4 6 -4 8 -14 5 -23 -5 -14 -9 -13 -25 7
-10 12 -18 17 -18 11 0 -7 -5 -9 -12 -5 -9 6 -9 9 0 12 7 2 9 8 6 13 -4 6 -11
6 -19 -1 -10 -8 -15 -8 -21 1 -4 8 -3 9 5 5 6 -4 14 0 17 9 5 13 11 10 28 -14
11 -17 25 -31 29 -31z m37 24 c0 -2 -8 0 -19 5 -10 6 -22 7 -26 3 -5 -4 -5 -1
-1 6 5 9 12 9 27 2 10 -6 19 -13 19 -16z m-3440 -14 c0 -5 -4 -10 -9 -10 -6 0
-13 5 -16 10 -3 6 1 10 9 10 9 0 16 -4 16 -10z m3520 -16 c0 -2 -9 0 -20 6
-11 6 -20 13 -20 16 0 2 9 0 20 -6 11 -6 20 -13 20 -16z m-54 -21 c-7 -7 -21
-4 -21 5 0 4 -4 14 -9 22 -6 9 -1 7 12 -4 12 -11 20 -21 18 -23z m-3496 -3 c0
-5 -4 -10 -9 -10 -6 0 -13 5 -16 10 -3 6 1 10 9 10 9 0 16 -4 16 -10z"/>
<path d="M2656 5338 c3 -5 10 -6 15 -3 13 9 11 12 -6 12 -8 0 -12 -4 -9 -9z"/>
<path d="M2765 5300 c10 -11 20 -20 23 -20 3 0 -3 9 -13 20 -10 11 -20 20 -23
20 -3 0 3 -9 13 -20z"/>
<path d="M2295 5170 c4 -6 11 -8 16 -5 14 9 11 15 -7 15 -8 0 -12 -5 -9 -10z"/>
<path d="M1840 4999 c0 -5 5 -7 10 -4 6 3 10 8 10 11 0 2 -4 4 -10 4 -5 0 -10
-5 -10 -11z"/>
<path d="M2950 4745 c0 -8 5 -15 10 -15 6 0 10 7 10 15 0 8 -4 15 -10 15 -5 0
-10 -7 -10 -15z"/>
<path d="M3240 3970 c0 -7 -43 -10 -117 -9 -65 0 -131 -1 -148 -4 -17 -3 -33
0 -37 7 -5 7 -8 6 -8 -5 0 -15 -46 -45 -62 -41 -5 1 -8 -2 -8 -7 0 -5 -24 -12
-52 -15 -29 -4 -58 -12 -65 -18 -7 -6 -20 -8 -28 -4 -9 3 -14 2 -11 -3 8 -13
-26 -23 -37 -12 -6 6 -22 7 -38 4 -27 -5 -154 22 -174 37 -5 4 -17 8 -25 8
-51 2 -119 10 -128 16 -6 3 -13 2 -17 -3 -3 -6 -11 -8 -18 -6 -27 9 -116 12
-111 4 3 -5 -7 -9 -23 -8 -25 0 -26 1 -8 9 l20 9 -20 0 c-11 1 -31 4 -44 8
-19 5 -22 3 -16 -8 7 -11 6 -12 -6 -2 -9 7 -20 8 -28 3 -8 -4 -23 -5 -34 -1
-32 12 -103 -34 -153 -98 -38 -48 -44 -63 -44 -103 0 -26 5 -50 11 -54 8 -4 7
-9 -2 -15 -10 -6 -11 -9 -1 -9 6 0 12 -9 12 -20 0 -11 5 -20 10 -20 6 0 10
-11 10 -24 0 -40 51 -115 78 -116 15 0 26 -7 29 -19 3 -12 12 -17 28 -16 13 2
34 -2 47 -9 53 -27 265 -9 276 24 2 5 7 8 11 6 4 -3 30 3 58 12 39 13 61 29
92 67 41 49 111 176 111 200 0 7 13 27 29 44 52 56 122 38 162 -42 27 -53 73
-112 124 -159 38 -36 72 -52 125 -62 14 -2 54 -12 90 -21 82 -23 183 -23 233
-1 38 17 51 46 20 46 -12 1 -8 6 12 17 17 9 33 20 36 25 3 5 28 10 55 11 27 1
54 6 59 11 11 10 18 45 17 81 -7 165 -10 178 -43 209 -17 17 -28 24 -24 16 5
-8 -4 -4 -18 9 -27 24 -39 17 -14 -8 10 -11 8 -11 -10 0 -12 7 -20 16 -18 20
3 3 -5 15 -17 25 -12 11 -18 13 -14 7 4 -7 4 -13 -1 -14 -4 0 -16 -2 -26 -4
-9 -2 -15 1 -12 5 7 12 -31 23 -55 15 -11 -4 -20 -2 -20 4 0 6 -4 11 -10 11
-5 0 -10 -5 -10 -10z"/>
<path d="M1805 3870 c3 -5 11 -10 16 -10 6 0 7 5 4 10 -3 6 -11 10 -16 10 -6
0 -7 -4 -4 -10z"/>
<path d="M3679 3358 c-8 -24 -7 -58 1 -58 5 0 10 14 10 30 0 17 -2 30 -5 30
-3 0 -5 -1 -6 -2z"/>
<path d="M2920 3321 c0 -12 42 -42 49 -36 5 5 -34 45 -44 45 -3 0 -5 -4 -5 -9z"/>
<path d="M3661 3254 c0 -11 3 -14 6 -6 3 7 2 16 -1 19 -3 4 -6 -2 -5 -13z"/>
<path d="M2952 3210 c0 -14 2 -19 5 -12 2 6 2 18 0 25 -3 6 -5 1 -5 -13z"/>
<path d="M3657 3180 c-4 -14 -6 -36 -6 -50 1 -18 4 -14 10 14 10 44 6 75 -4
36z"/>
<path d="M3590 3177 c0 -7 -16 -19 -35 -26 -19 -7 -35 -17 -35 -22 0 -6 -4 -7
-10 -4 -5 3 -10 1 -10 -4 0 -6 -10 -11 -21 -11 -18 0 -19 -2 -9 -15 10 -12 10
-21 1 -41 -9 -20 -9 -30 0 -40 8 -10 8 -22 -1 -48 -11 -33 -6 -81 10 -91 5 -3
6 4 3 16 -4 13 2 27 16 40 25 23 27 34 6 25 -31 -12 -13 6 20 20 22 9 32 19
29 28 -3 9 1 13 12 13 12 -2 18 6 19 23 1 14 4 32 7 40 12 30 18 110 8 110 -6
0 -10 -6 -10 -13z"/>
<path d="M3696 3134 c-3 -9 -6 -24 -6 -35 0 -10 -5 -19 -10 -19 -6 0 -8 -11
-4 -26 5 -19 4 -25 -5 -20 -7 5 -11 -2 -11 -21 -1 -15 -2 -53 -4 -83 -2 -30
-1 -47 1 -37 3 9 9 17 14 17 5 0 9 6 9 13 0 8 20 12 67 12 44 0 68 4 71 13 2
6 9 12 16 12 7 0 21 9 31 20 22 24 8 26 -43 4 -51 -21 -120 -11 -131 19 -10
27 6 67 28 68 53 4 53 6 19 47 -31 37 -34 38 -42 16z"/>
<path d="M3652 3075 c0 -16 2 -22 5 -12 2 9 2 23 0 30 -3 6 -5 -1 -5 -18z"/>
<path d="M3535 2940 c3 -5 8 -10 11 -10 2 0 4 5 4 10 0 6 -5 10 -11 10 -5 0
-7 -4 -4 -10z"/>
<path d="M2114 2907 c-5 -12 -7 -25 -6 -29 1 -5 -3 -8 -8 -8 -6 0 -9 -13 -8
-30 1 -16 5 -30 9 -30 8 0 24 59 21 73 -1 4 2 7 7 7 15 0 20 28 6 34 -8 3 -17
-4 -21 -17z"/>
<path d="M2410 2910 c0 -5 5 -10 10 -10 6 0 10 5 10 10 0 6 -4 10 -10 10 -5 0
-10 -4 -10 -10z"/>
<path d="M3437 2894 c-4 -4 -7 -19 -6 -33 l0 -26 10 24 c10 26 8 47 -4 35z"/>
<path d="M3587 2894 c-4 -4 -7 -23 -6 -43 l1 -36 9 33 c11 36 9 58 -4 46z"/>
<path d="M2030 2780 c0 -19 3 -21 12 -12 9 9 9 15 0 24 -9 9 -12 7 -12 -12z"/>
<path d="M2110 2780 c0 -5 5 -10 10 -10 6 0 10 5 10 10 0 6 -4 10 -10 10 -5 0
-10 -4 -10 -10z"/>
<path d="M4005 2780 c3 -5 10 -10 16 -10 5 0 9 5 9 10 0 6 -7 10 -16 10 -8 0
-12 -4 -9 -10z"/>
<path d="M2051 2734 c0 -11 3 -14 6 -6 3 7 2 16 -1 19 -3 4 -6 -2 -5 -13z"/>
<path d="M2070 2720 c0 -5 5 -10 10 -10 6 0 10 5 10 10 0 6 -4 10 -10 10 -5 0
-10 -4 -10 -10z"/>
<path d="M4095 2660 c-3 -6 1 -13 9 -16 9 -3 13 -11 9 -18 -4 -6 2 -4 12 4 18
14 18 15 -3 18 -12 2 -20 8 -17 13 4 5 4 9 1 9 -3 0 -8 -5 -11 -10z"/>
<path d="M3423 2562 c0 -12 5 -22 9 -22 11 0 10 12 -2 30 -7 12 -9 10 -7 -8z"/>
<path d="M2268 2563 c7 -3 16 -2 19 1 4 3 -2 6 -13 5 -11 0 -14 -3 -6 -6z"/>
<path d="M2327 2544 c-12 -12 3 -22 23 -17 11 3 17 9 14 14 -6 10 -28 12 -37
3z"/>
<path d="M3130 2522 c0 -5 9 -12 21 -15 13 -3 19 -1 16 6 -5 15 -37 22 -37 9z"/>
<path d="M3182 2477 c-8 -10 -6 -13 7 -13 11 0 17 6 14 13 -3 7 -6 13 -8 13
-1 0 -7 -6 -13 -13z"/>
<path d="M3331 2384 c0 -11 3 -14 6 -6 3 7 2 16 -1 19 -3 4 -6 -2 -5 -13z"/>
<path d="M2326 2345 c4 -8 10 -12 15 -9 11 6 2 24 -11 24 -5 0 -7 -7 -4 -15z"/>
<path d="M3123 2335 c0 -8 8 -15 18 -15 13 0 17 -5 12 -17 -6 -16 -5 -17 11
-3 11 8 14 16 7 18 -6 2 -9 8 -6 13 4 5 -1 6 -9 3 -9 -3 -16 -1 -16 5 0 6 -4
11 -8 11 -5 0 -9 -7 -9 -15z"/>
<path d="M2370 2330 c0 -5 5 -10 11 -10 5 0 7 5 4 10 -3 6 -8 10 -11 10 -2 0
-4 -4 -4 -10z"/>
<path d="M2410 2290 c0 -5 5 -10 10 -10 6 0 10 5 10 10 0 6 -4 10 -10 10 -5 0
-10 -4 -10 -10z"/>
<path d="M3223 1558 c-23 -11 -31 -28 -15 -28 12 0 72 30 72 36 0 8 -35 3 -57
-8z"/>
<path d="M3066 1013 c-11 -11 -6 -23 9 -23 8 0 15 4 15 9 0 13 -16 22 -24 14z"/>
<path d="M1519 2602 c13 -9 33 -17 45 -19 20 -3 20 -2 -3 17 -13 11 -33 20
-45 19 -21 0 -20 0 3 -17z"/>
<path d="M4494 1932 c3 -6 -2 -13 -11 -15 -16 -4 -16 -5 -1 -6 21 -1 32 15 17
25 -7 4 -9 3 -5 -4z"/>
<path d="M636 1365 c-3 -8 -1 -15 4 -15 6 0 10 7 10 15 0 8 -2 15 -4 15 -2 0
-6 -7 -10 -15z"/>
<path d="M2206 1654 c-9 -23 -8 -24 14 -24 24 0 25 6 6 25 -12 12 -15 12 -20
-1z"/>
<path d="M1055 960 c-3 -5 -2 -10 4 -10 5 0 13 5 16 10 3 6 2 10 -4 10 -5 0
-13 -4 -16 -10z"/>
<path d="M950 889 c0 -5 5 -7 10 -4 6 3 10 8 10 11 0 2 -4 4 -10 4 -5 0 -10
-5 -10 -11z"/>
<path d="M2125 5641 c-7 -12 22 -29 56 -33 13 -2 29 -7 36 -11 13 -8 53 25 53
43 0 13 -137 13 -145 1z"/>
<path d="M2658 5433 c6 -2 18 -2 25 0 6 3 1 5 -13 5 -14 0 -19 -2 -12 -5z"/>
<path d="M2455 5410 c3 -5 8 -10 11 -10 2 0 4 5 4 10 0 6 -5 10 -11 10 -5 0
-7 -4 -4 -10z"/>
<path d="M5117 782 c-3 -4 9 -17 24 -30 23 -19 28 -20 22 -6 -4 10 -2 15 3 11
5 -3 10 2 10 11 0 11 -10 18 -28 19 -15 1 -29 -1 -31 -5z"/>
<path d="M5249 757 c-2 -18 -5 -34 -9 -42 -2 -5 -6 -17 -9 -32 -1 -5 -7 -1
-14 8 -7 8 -21 19 -32 23 -11 4 4 -19 35 -52 30 -33 58 -60 63 -61 13 -2 2 24
-13 30 -8 3 -15 20 -16 37 -1 18 2 30 6 27 14 -9 21 27 8 43 -7 8 -11 17 -10
19 2 3 1 7 -2 11 -3 3 -7 -2 -7 -11z m21 -37 c0 -4 -7 -11 -16 -14 -13 -5 -14
-4 -6 7 7 8 8 18 4 22 -4 5 -1 5 6 1 6 -4 12 -11 12 -16z m-20 -50 c0 -5 -2
-10 -4 -10 -3 0 -8 5 -11 10 -3 6 -1 10 4 10 6 0 11 -4 11 -10z"/>
<path d="M5306 622 c-2 -4 -1 -14 4 -22 7 -11 9 -9 7 8 -1 24 -3 26 -11 14z"/>
</g>
</svg>
